<svg xmlns="http://www.w3.org/2000/svg" xmlns:xlink="http://www.w3.org/1999/xlink" width="18" height="18" viewBox="0 0 18 18">
  <defs>
    <clipPath id="clip-path">
      <rect id="Rectangle_38" data-name="Rectangle 38" width="18" height="18" transform="translate(1468 8708)" fill="#fff"/>
    </clipPath>
  </defs>
  <g id="Mask_Group_2" data-name="Mask Group 2" transform="translate(-1468 -8708)" clip-path="url(#clip-path)">
    <g id="instagram_1_" data-name="instagram (1)" transform="translate(1468.002 8708)">
      <path id="Path_306" data-name="Path 306" d="M17.972,5.292a6.577,6.577,0,0,0-.418-2.184A4.611,4.611,0,0,0,14.92.475,6.594,6.594,0,0,0,12.736.056C11.773.011,11.467,0,9.023,0s-2.75.011-3.71.053A6.579,6.579,0,0,0,3.13.471a4.392,4.392,0,0,0-1.6,1.041A4.432,4.432,0,0,0,.5,3.1,6.6,6.6,0,0,0,.077,5.288C.032,6.252.021,6.558.021,9s.011,2.75.053,3.71A6.577,6.577,0,0,0,.492,14.9a4.61,4.61,0,0,0,2.634,2.634,6.6,6.6,0,0,0,2.184.418c.96.042,1.266.053,3.71.053s2.75-.01,3.71-.053a6.576,6.576,0,0,0,2.184-.418A4.6,4.6,0,0,0,17.546,14.9a6.6,6.6,0,0,0,.418-2.184c.042-.96.053-1.266.053-3.71s0-2.75-.046-3.71Zm-1.621,7.349a4.934,4.934,0,0,1-.309,1.67,2.986,2.986,0,0,1-1.709,1.709,4.951,4.951,0,0,1-1.67.309c-.949.042-1.234.053-3.636.053s-2.69-.01-3.636-.053a4.931,4.931,0,0,1-1.67-.309,2.77,2.77,0,0,1-1.034-.672,2.8,2.8,0,0,1-.672-1.034,4.952,4.952,0,0,1-.309-1.67c-.042-.949-.053-1.234-.053-3.636s.01-2.69.053-3.636A4.931,4.931,0,0,1,2.015,3.7,2.736,2.736,0,0,1,2.69,2.669,2.794,2.794,0,0,1,3.724,2a4.955,4.955,0,0,1,1.67-.309c.949-.042,1.234-.053,3.636-.053s2.69.011,3.636.053A4.934,4.934,0,0,1,14.336,2a2.768,2.768,0,0,1,1.034.672A2.8,2.8,0,0,1,16.041,3.7a4.954,4.954,0,0,1,.309,1.67c.042.949.053,1.234.053,3.636s-.011,2.683-.053,3.632Zm0,0" transform="translate(-0.021 0)" fill="#fff"/>
      <path id="Path_307" data-name="Path 307" d="M10.482,5.837a4.624,4.624,0,1,0,4.624,4.624A4.625,4.625,0,0,0,10.482,5.837Zm0,7.623a3,3,0,1,1,3-3,3,3,0,0,1-3,3Zm0,0" transform="translate(-1.48 -1.459)" fill="#fff"/>
      <path id="Path_308" data-name="Path 308" d="M19.152,5.234a1.08,1.08,0,1,1-1.08-1.079,1.08,1.08,0,0,1,1.08,1.079Zm0,0" transform="translate(-4.264 -1.039)" fill="#fff"/>
    </g>
  </g>
</svg>
